# xmcd
#
# Track frame offsets: 
#        150
#        15737
#        35852
#        51490
#        74290
#        88835
#        107892
#        123332
#        141452
#        156395
#        169187
#        189662
#        203552
#        219062
#        234557
#        251947
#        267175
#        281327
#        310310
#
# Disc length: 4744 seconds
#
# Revision: 2
# Processed by: cddbd v1.5.2PL0 Copyright (c) Steve Scherf et al.
# Submitted via: ExactAudioCopy v0.95b4
#
DISCID=24128613
DTITLE=Lewis, Linda Gail - Out Of The Shadows
DYEAR=2002
DGENRE=Country
TTITLE0=Baby, I'm In Love
TTITLE1=Everything I Need
TTITLE2=Love So Real
TTITLE3=The Sweetest Love
TTITLE4=What A Beautiful Day
TTITLE5=Out Of The Shadows
TTITLE6=Treat Me Like A Lady
TTITLE7=Life Without You
TTITLE8=Paradise To Me
TTITLE9=I'd Rather Stay Home and Rock 'n' Roll
TTITLE10=Here Ever After
TTITLE11=Never Wear Mascara
TTITLE12=Dark End Of The Street
TTITLE13=Moore Or Les
TTITLE14=This Long And Lonely Night
TTITLE15=Baby, I Want You
TTITLE16=Dancin' 'Round and 'Round
TTITLE17=Relentless
TTITLE18=Video
EXTD=TEN35 Records    TEN35 1011
EXTT0=
EXTT1=
EXTT2=
EXTT3=
EXTT4=
EXTT5=
EXTT6=
EXTT7=
EXTT8=
EXTT9=
EXTT10=
EXTT11=
EXTT12=
EXTT13=
EXTT14=
EXTT15=
EXTT16=
EXTT17=
EXTT18=
PLAYORDER=
